PathFileType	4	(X/Y/Z)	33_2_67_p1_0-624.trc
DataRate	CameraRate	NumFrames	NumMarkers	Units	OrigDataRate	OrigDataStartFrame	OrigNumFrames
59.0	59.0	7	27	m	59.0	390	625
Frame#	Time	RHip			RKnee			RAnkle			RBigToe			RSmallToe			RHeel			LHip			LKnee			LAnkle			LBigToe			LSmallToe			LHeel			Neck			Head			Nose			RShoulder			RElbow			RWrist			RThumb			RIndex			RPinky			LShoulder			LElbow			LWrist			LThumb			LIndex			LPinky			
		X1	Y1	Z1	X2	Y2	Z2	X3	Y3	Z3	X4	Y4	Z4	X5	Y5	Z5	X6	Y6	Z6	X7	Y7	Z7	X8	Y8	Z8	X9	Y9	Z9	X10	Y10	Z10	X11	Y11	Z11	X12	Y12	Z12	X13	Y13	Z13	X14	Y14	Z14	X15	Y15	Z15	X16	Y16	Z16	X17	Y17	Z17	X18	Y18	Z18	X19	Y19	Z19	X20	Y20	Z20	X21	Y21	Z21	X22	Y22	Z22	X23	Y23	Z23	X24	Y24	Z24	X25	Y25	Z25	X26	Y26	Z26	X27	Y27	Z27	
390	6.610169491525424	0.3163428393771829	0.25982993916699076	0.19592983664623548	0.2628385362268819	0.4982498078662616	0.5763221129472257	0.24414868626168887	0.7244164075488991	0.9159241141153798	0.24650209246843668	0.5449911632409176	0.9972219166934526	0.30740603992570553	0.5927625325906067	0.989000354534892	0.2162110793409597	0.8425614293048965	0.9761939404393868	0.088644063618648	0.2667895003481822	0.1894836691413392	0.10294193790383978	0.47086745138399444	0.5641140898000265	0.0949107531686338	0.7957304344213313	0.9499112710505426	0.1114648325109887	0.5710090463876918	1.0037275833000827	0.06272009364507297	0.6022525145722247	0.9950469498709742	0.08952061636388402	0.8533077356355351	0.9863462184744591	0.21504249790053687	-0.027249478456309616	-0.3466336884643575	0.20956970798205352	-0.1664875182014496	-0.5440464336550745	0.19044735263464618	-0.17353045225622493	-0.41499045091743086	0.3821748265111625	0.059716550342706384	-0.25869745695423896	0.42109261890304084	0.17636324563604802	-0.013310095642904604	0.4153959559432236	0.25315346840116537	0.2331529742452531	0.35713322881641274	0.292965616462356	0.35087408087931254	0.39820941776184293	0.3074544057182457	0.37615574290495446	0.4120440193533907	0.3411450995529342	0.34915079101566143	0.05512647255552248	0.046152058239086836	-0.27679230144564904	-0.016727294506109748	0.20533164986773553	-0.03867850341948593	-0.0030309844260332916	0.23873917189932753	0.23584060060907694	0.036040850797399	0.33278665691027337	0.3392519072254401	0.004800424298159366	0.2995911294615662	0.35890122844599937	-0.023637377996685534	0.2812080334903404	0.35908986316046837
391	6.627118644067797	0.3114709300295754	0.27361174098185964	0.19353313245981318	0.26279531385205096	0.4981640800859052	0.5763625978871028	0.24411678712862964	0.7241875732269343	0.915841556720413	0.24640431465827003	0.5458582874575852	0.9969302792941873	0.300106209145577	0.5976273113915029	0.9893679868491532	0.22126423606930165	0.8203782890824693	0.9694856232723204	0.08844266797324678	0.2670827820891282	0.18942220764728226	0.10268483846674413	0.46995751739211933	0.5602374664613633	0.09502402926751002	0.7954589761091828	0.9498265808666817	0.11479243667692177	0.5707091174498347	1.0000759213907604	0.06270868338861042	0.6021617417412874	0.9951237533840044	0.08962373518942447	0.8533824547036285	0.98638000339462	0.21477454494470946	-0.028024311957276473	-0.34643396197922877	0.20960957632220206	-0.1664006792906571	-0.5439769001131461	0.19055631448711843	-0.17218899110203995	-0.4119526573590698	0.38208865374096684	0.05979104982400333	-0.25867513588009333	0.4195504154627125	0.18522168615951184	-0.015545064351883598	0.4148297813740259	0.2506311758376447	0.2300587435202203	0.35649389721362407	0.29448883925114633	0.35424236876152326	0.398083662336719	0.3074479489320861	0.3762177657074936	0.4115914536415416	0.34121389152679665	0.3494108952310275	0.0550573045478144	0.04612576832788352	-0.2768094125855802	-0.0172990007400101	0.20701287179334782	-0.03583253713529066	-0.009070857602645647	0.2518311398790106	0.23382957548842856	0.03607472184623093	0.33269680342687935	0.3391303074286512	0.0047687034665978055	0.2993315474426951	0.35886607250963026	-0.0238425273256336	0.2814429031948768	0.3590800749925412
392	6.6440677966101696	0.3073995802437324	0.27134185354194723	0.19407598494415035	0.2627870450943719	0.4984077093685895	0.5763309868771813	0.2440809173441495	0.7242832183470445	0.9157364398514355	0.2410024770864139	0.5614550485455996	0.9993738324766375	0.302348087269854	0.6095515096199027	0.9909490856074779	0.22198278389335255	0.8244664560593439	0.9747447469632593	0.08844754179781456	0.2670119619353013	0.18942270204979972	0.10264204222163911	0.46972441782455693	0.5601740720128146	0.09291096081800403	0.7790785413235725	0.9492520584731664	0.11129285906512988	0.5710753582908226	1.0040202864651249	0.06260731289468145	0.6023732562759756	0.995119837825417	0.08938849358004575	0.8523034178972276	0.9862804202559484	0.2149329490841261	-0.02592776912004101	-0.3436959259319331	0.21416305915069483	-0.17630440409047074	-0.5390523533056271	0.19057139313015953	-0.1722384032639077	-0.4118811150210548	0.3820909013286068	0.05979948402577615	-0.2586477896228312	0.4197025261751759	0.18654901978023622	-0.011623643604115105	0.4147999118415809	0.25054507418034777	0.23005983980833639	0.3595454289019144	0.3044253325616573	0.349335064313917	0.4004113881520514	0.3164273646587761	0.37124000814526686	0.40667281130680744	0.33802948821727846	0.3457621442839331	0.05502966953487083	0.04610468584448309	-0.27673611957268235	-0.016753271045945636	0.20561205477118621	-0.03879860252809149	-0.009026475202143025	0.2518695263730644	0.2338607323610873	0.03617715816472184	0.3336347385778942	0.3422559187098534	0.004712851151517542	0.29922985326372903	0.3588883483504652	-0.02981793922914223	0.2946583446849926	0.35760253254947366
393	6.661016949152542	0.30720032934834257	0.2702352773648281	0.19061208866478213	0.26280587136113326	0.49842544715062564	0.5763541850136593	0.24406041916072296	0.7243353097906308	0.9158639665472127	0.24092255766837484	0.560912355711695	0.9996126583749255	0.30227459461921136	0.6091951424630779	0.9911424326982174	0.21614809145400518	0.8423118595825944	0.9763218684790702	0.08845880319416462	0.26700866616991115	0.18944622723395002	0.10259137072853775	0.4698393033234406	0.5602137994070885	0.09289604906300618	0.7792523829556054	0.9492621630371872	0.1114131344891068	0.5709472756469298	1.0038720081865409	0.06272041173036873	0.6021063531092671	0.9951598746664243	0.08938349611132979	0.8525932459842455	0.9863931147449585	0.21702281848727728	-0.01757103954368764	-0.3505915440407779	0.21422904281333327	-0.1763497958070969	-0.5389913246539606	0.19058274495189387	-0.17131034504385034	-0.4089678229881163	0.38212333926883085	0.05970239501173376	-0.25859483339846734	0.41961577658751803	0.18647843024883473	-0.011494959976361803	0.4147389076081719	0.2505378274978218	0.23008014120507642	0.3576084780785525	0.294933422866317	0.35373598352403	0.3941864626871163	0.3056839546364878	0.3766869841109356	0.40665655061027023	0.33771593216595513	0.345644528761366	0.05504381287108785	0.0461586782576644	-0.27677783761278235	-0.016670637534334516	0.2056552445747105	-0.03877639895750497	-0.008989001220772027	0.251878053017631	0.2339354301535342	0.036196558946607074	0.33370626993069924	0.34238517732476065	0.004813621380767578	0.2991656560528264	0.3590386770651183	-0.03054577072022771	0.2954235668839851	0.36029218675206776
394	6.677966101694915	0.307134815995713	0.27026999504747823	0.19058363598752778	0.25887450985297517	0.49602459223779416	0.5765990670405186	0.24402809582111107	0.7245785063474113	0.9160517742875577	0.24602492975309925	0.5433524628958454	0.9984220172599216	0.30205224432374833	0.608249117459269	0.9914716976577829	0.21616766564283246	0.8428382108537433	0.9767535197879628	0.08838714243757709	0.26701623064055763	0.1894309168590363	0.10202451427898475	0.4668653754301706	0.5563667237518286	0.09287709687431449	0.7792484368964003	0.9493268857837235	0.1103402568073802	0.5725925335939615	1.007922659167433	0.06771412162202	0.5876711627572742	0.9971151922024588	0.08936901275918105	0.8530249336840989	0.986554473761649	0.21717672183971354	-0.015549000431746786	-0.34786011227531916	0.21797971884921774	-0.17465228761063878	-0.5400642123794117	0.19056103580179212	-0.1712803264691879	-0.4089520271992769	0.3821441613707333	0.05977055803134234	-0.25859847709064016	0.4195972908408323	0.18645602419047191	-0.011509013086009545	0.4146578578573298	0.25018147900967064	0.2300269456318756	0.35816883423461787	0.29317552176430034	0.3504967514642624	0.3946835863721904	0.3042815633494257	0.37318077854763476	0.4059197345891287	0.33521963968932583	0.3416158646225657	0.05505999069123365	0.04614442945591313	-0.2768013243836279	-0.016691095302348802	0.2058226023394272	-0.03882658863727342	-0.009036677438274706	0.2519354050621196	0.2338756716662162	0.03614821868437669	0.3336113408935721	0.34238335702415307	0.0031268546842479284	0.28745409519814724	0.3639282288471978	-0.030022074779782002	0.2942191895772904	0.3577214862103072
395	6.694915254237288	0.30762919348361256	0.272747007608813	0.19400488547280473	0.25882788557396574	0.4960579581960183	0.5767161736008517	0.24403915155071576	0.7242958217705188	0.9158961159134479	0.24092760076086403	0.5607902025273401	0.9993496614133752	0.29984815188203373	0.5956550981700961	0.9898465326265985	0.2157983870082613	0.8424431550080057	0.9726320067201651	0.08840614408074758	0.26676809388892936	0.1895535857043588	0.10260270188558189	0.4699545007763899	0.5602086770126585	0.09292842835752799	0.7794064865295369	0.9492133630039862	0.11075391888175842	0.5674360009078411	0.9997543822904535	0.0627609092340813	0.6020009298094646	0.9951702082227585	0.08953247373871182	0.8536851381854795	0.9865316463980637	0.21708013902296788	-0.01752597272309209	-0.3505751628585863	0.21811116897647984	-0.17491170311320015	-0.5400873996186454	0.19060183138576214	-0.17120626478788792	-0.4089522315219395	0.38215549005245153	0.05980555423459736	-0.25860590858393456	0.41549048855869564	0.2002789171341398	-0.01475644456730561	0.41468883943189755	0.2501050791756608	0.23010195353529367	0.35556737177005926	0.2808152727588497	0.35220132671065896	0.3913198905233238	0.291091825682862	0.3744744718810415	0.40659029338631536	0.33680386433937504	0.3460842649819423	0.05505637770656909	0.046168585201606716	-0.2767938293316061	-0.01657969515535049	0.20556045576420046	-0.03872152659415212	-0.003006594342242401	0.23890580892454039	0.23598813392090381	0.03621769014416903	0.3336544712796235	0.3424081346919116	0.0047927248722078476	0.29874669243488833	0.35896729157911234	-0.023987987791931967	0.28104305721528444	0.3591654689224011
396	6.711864406779661	0.304765067223998	0.261239071407466	0.1959751016095658	0.25951249435382606	0.49915402512344076	0.5805742813190529	0.2454831823958756	0.7052623483361293	0.9152754422049288	0.2454825960751768	0.544143355768173	0.9983910295915256	0.2996394529917494	0.5752173296648623	0.9887917432983747	0.22229725286458352	0.824504422822989	0.9758496216581042	0.08337946590770941	0.282079178807192	0.18713728788082723	0.10263168412528094	0.4697219337065252	0.5602111567429277	0.09305122084833785	0.7788331734255877	0.9492169344408007	0.11038384885252295	0.5671788252506648	1.0003833006383773	0.06210111420462457	0.598783751819506	0.9914494395501187	0.08918588295741654	0.8520006782412886	0.9866309543147436	0.21720982337817563	-0.015532051873209711	-0.34783289232432196	0.21818409072788142	-0.17494593423127697	-0.5399793812455314	0.19062402600834874	-0.1728777550697791	-0.4117228793938785	0.3821232352420356	0.059946967760881605	-0.2586893093891791	0.41535328419489603	0.20036579836050536	-0.014694670897195424	0.41462678630210187	0.25019611017471105	0.2301679269720138	0.35107279569528166	0.2949909330676795	0.35074994945455334	0.3858142261209302	0.3074636904055619	0.37677224074152554	0.3969955556290882	0.3667431466401042	0.3431551552712005	0.05500508869848755	0.046246568375861066	-0.2768364833241475	-0.022694713857973416	0.21918064092199796	-0.038342475791215594	-0.009046059918428159	0.25218150211007634	0.233940164910182	0.03684104600707845	0.3318720741917339	0.3385473122038779	0.002886595390572441	0.28569882148889164	0.3605172138435009	-0.029764820361030602	0.29430357986403044	0.35782595825827207
